<mxfile host="app.diagrams.net" modified="2021-01-06T15:45:29.530Z" agent="5.0 (Macintosh; Intel Mac OS X 10_15_4) AppleWebKit/537.36 (KHTML, like Gecko) Chrome/87.0.4280.88 Safari/537.36" etag="X1f7kj-Ms2uM8JdD3E3G" version="14.0.1" type="github">
  <diagram id="WwpQAEtoohPqWwQBCGNM" name="Page-1">
    <mxGraphModel dx="946" dy="614" grid="1" gridSize="10" guides="1" tooltips="1" connect="1" arrows="1" fold="1" page="1" pageScale="1" pageWidth="827" pageHeight="1169" math="0" shadow="0">
      <root>
        <mxCell id="0" />
        <mxCell id="1" parent="0" />
        <mxCell id="wA4b7GL8Rn37XyABMobn-4" value="" style="rounded=1;whiteSpace=wrap;html=1;" vertex="1" parent="1">
          <mxGeometry x="300" y="320" width="280" height="60" as="geometry" />
        </mxCell>
        <mxCell id="wA4b7GL8Rn37XyABMobn-1" value="" style="triangle;whiteSpace=wrap;html=1;" vertex="1" parent="1">
          <mxGeometry x="400" y="295" width="40" height="50" as="geometry" />
        </mxCell>
        <mxCell id="wA4b7GL8Rn37XyABMobn-2" value="" style="ellipse;whiteSpace=wrap;html=1;aspect=fixed;" vertex="1" parent="1">
          <mxGeometry x="440" y="310" width="20" height="20" as="geometry" />
        </mxCell>
        <mxCell id="wA4b7GL8Rn37XyABMobn-5" value="" style="endArrow=none;html=1;entryX=1;entryY=0;entryDx=0;entryDy=0;" edge="1" parent="1" target="wA4b7GL8Rn37XyABMobn-4">
          <mxGeometry width="50" height="50" relative="1" as="geometry">
            <mxPoint x="660" y="320" as="sourcePoint" />
            <mxPoint x="440" y="290" as="targetPoint" />
          </mxGeometry>
        </mxCell>
        <mxCell id="wA4b7GL8Rn37XyABMobn-6" value="" style="ellipse;whiteSpace=wrap;html=1;aspect=fixed;fillColor=#000000;" vertex="1" parent="1">
          <mxGeometry x="574" y="315" width="10" height="10" as="geometry" />
        </mxCell>
        <mxCell id="wA4b7GL8Rn37XyABMobn-7" value="&lt;font style=&quot;font-size: 17px&quot;&gt;输出&lt;/font&gt;" style="text;html=1;strokeColor=none;fillColor=none;align=center;verticalAlign=middle;whiteSpace=wrap;rounded=0;" vertex="1" parent="1">
          <mxGeometry x="670" y="305" width="50" height="30" as="geometry" />
        </mxCell>
        <mxCell id="wA4b7GL8Rn37XyABMobn-8" value="&lt;span style=&quot;font-size: 17px&quot;&gt;反向器&lt;/span&gt;" style="text;html=1;strokeColor=none;fillColor=none;align=center;verticalAlign=middle;whiteSpace=wrap;rounded=0;" vertex="1" parent="1">
          <mxGeometry x="390" y="260" width="80" height="30" as="geometry" />
        </mxCell>
      </root>
    </mxGraphModel>
  </diagram>
</mxfile>
